.
..............................Site Info...........................

 -   http://www.scenetime.com  *_*    

Scenetime .Always on time . friendly online private torrent community ..

     We care to share . Join us on  http://www.scenetime.com 

    Be the first to get new release at  http://www.scenetime.com

        Seed back for speed


...................................NFO:.................................................                                                                                                     
       
     
     
       
       
     
     
                                         
                                         
                EXVID                    
                                         
         
                                         
         Filled the Archives             
                                         
         
                                         
                With:                    
                                         
         
                                         
                                    
     E240                           
                                    
     SP               (C) 2009      
                                         
     
     
     
                                                                                  
                                                                                   
            Resurrecting.the.Champ.2007.WS.DVDRip.XviD-EXViD                        
                                                                                   
                                                                                  
     
                                                                                               
EXViD aims to iNTERNAL those releases which have been lost in the archives.
EXViD aims to PRE non-internal releases which have poor sources and are likely skipped by others. 
http://www.imdb.com/title/tt0416185/
Subtitles: Dutch
Date: 2012.10

Director: Rod Lurie

Genre: Drama | Sport

Plot:
Up-and-coming sports reporter rescues a homeless man ("Champ") only to discover that he is,
in fact, a boxing legend believed to have passed away. What begins as an opportunity to
resurrect Champ's story and escape the shadow of his father's success becomes a personal
journey as the ambitious reporter reexamines his own life and his relationship with his
family.

Cast:
Samuel L. Jackson	 ...	Champ
Josh Hartnett	 ...	Erik Kernan Jr.
Kathryn Morris	 ...	Joyce Kernan
Dakota Goyo	 ...	Teddy Kernan
Alan Alda	 ...	Ralph Metz
Rachel Nichols	 ...	Polly
Teri Hatcher	 ...	Andrea Flak
Kristen Shaw	 ...	Perlmutter
Nick Sandow	 ...	Marciano
David Paymer	 ...	Whitley
Harry Lennix	 ...	Bob Satterfield Jr.
Peter Coyote	 ...	Ike Epstein
Ryan Mcdonald	 ...	Kenny
Chris Ippolito	 ...	Jaws
Jameson Trenholm	 ...	Runt

Stats:
Format                           : AVI
Format/Info                      : Audio Video Interleave
File size                        : 1.37 GiB
Duration                         : 1h 47mn
Overall bit rate                 : 1 823 Kbps
Writing application              : Nandub v1.0rc2
Writing library                  : Nandub build 1852/release

Video
ID                               : 0
Format                           : MPEG-4 Visual
Format profile                   : Advanced Simple@L5
Format settings, BVOP            : 1
Format settings, QPel            : No
Format settings, GMC             : No warppoints
Format settings, Matrix          : Default (H.263)
Codec ID                         : XVID
Codec ID/Hint                    : XviD
Duration                         : 1h 47mn
Bit rate                         : 1 368 Kbps
Width                            : 640 pixels
Height                           : 272 pixels
Display aspect ratio             : 2.35:1
Frame rate                       : 25.000 fps
Color space                      : YUV
Chroma subsampling               : 4:2:0
Bit depth                        : 8 bits
Scan type                        : Progressive
Compression mode                 : Lossy
Bits/(Pixel*Frame)               : 0.314
Stream size                      : 1.03 GiB (75%)
Writing library                  : XviD 64

Audio
ID                               : 1
Format                           : AC-3
Format/Info                      : Audio Coding 3
Mode extension                   : CM (complete main)
Codec ID                         : 2000
Duration                         : 1h 47mn
Bit rate mode                    : Constant
Bit rate                         : 448 Kbps
Channel(s)                       : 6 channels
Channel positions                : Front: L C R, Side: L R, LFE
Sampling rate                    : 48.0 KHz
Bit depth                        : 16 bits
Compression mode                 : Lossy
Stream size                      : 344 MiB (25%)
Alignment                        : Aligned on interleaves
Interleave, duration             : 96 ms (2.40 video frames)
Interleave, preload duration     : 96 ms




Release notes:
SUNSPOT rip was 1.74:1. Ours is 2.35:1.

enjoy!

Looking for:
75TB+ Archives
DUTCH/FLEMiSH Archives
                                                                                                    
Greets: CRBS EPiSODE FiCO FLS iLS KLASSiGER LiPSYNC MADE NODLABS RUNNER SPRiNTER      
   

                                                                    ASCII DONE BY XX^NFO 2oo9     
 
 	 		
RLS-Crc: 415243414445:42EECD90